<svg width="17" height="14" viewBox="0 0 17 14" xmlns="http://www.w3.org/2000/svg"><title>Shape</title><path d="M16.686 5.13a.453.453 0 0 0-.374-.268l-5.213-.63L8.754.218A.479.479 0 0 0 8.339 0a.475.475 0 0 0-.415.222L5.609 4.246l-5.213.66a.453.453 0 0 0-.374.268.351.351 0 0 0 .12.403l3.783 3.12-.874 4.417c-.031.15.04.298.185.385a.513.513 0 0 0 .487.03l4.653-2.099 4.668 2.075c.068.03.14.044.212.044.254 0 .463-.178.463-.394a.265.265 0 0 0-.013-.09l-.902-4.392 3.758-3.137a.349.349 0 0 0 .124-.406z" fill="#ED8B00" fill-rule="evenodd"/></svg>