<?xml version="1.0" encoding="UTF-8"?>
<svg width="17px" height="14px" viewBox="0 0 17 14" version="1.1" xmlns="http://www.w3.org/2000/svg" xmlns:xlink="http://www.w3.org/1999/xlink">
    <!-- Generator: Sketch 50.2 (55047) - http://www.bohemiancoding.com/sketch -->
    <title>Shape</title>
    <desc>Created with Sketch.</desc>
    <defs></defs>
    <g id="Symbols" stroke="none" stroke-width="1" fill="none" fill-rule="evenodd">
        <g id="Desktop/Collection/Product-Card" transform="translate(-210.000000, -477.000000)" fill="#ED8B00">
            <g id="Stars" transform="translate(137.000000, 477.000000)">
                <path d="M89.6858014,5.13015408 C89.6309312,4.98716344 89.4868971,4.88502727 89.3119985,4.86168186 L84.0993353,4.23135576 L81.7536368,0.218863229 C81.674761,0.0846271151 81.51358,0 81.3386814,0 C81.1637829,0 81.0026018,0.0846271151 80.923726,0.221781405 L78.608892,4.24594664 L73.3962288,4.9054545 C73.2213302,4.92879991 73.0772961,5.03093609 73.0224259,5.17392673 C72.9675558,5.31691737 73.0155672,5.4744989 73.1424544,5.57663507 L76.9250646,8.69616563 L76.0505718,13.1142847 C76.0197073,13.2631117 76.0917244,13.4119387 76.2357585,13.499484 C76.3146343,13.549093 76.410657,13.5753565 76.5066798,13.5753565 C76.5821262,13.5753565 76.6541433,13.5607657 76.722731,13.5286657 L81.3764046,11.4304969 L86.0437959,13.5053203 C86.1123835,13.5345021 86.1844006,13.549093 86.2564176,13.549093 C86.510192,13.549093 86.7193844,13.3710842 86.7193844,13.1551391 C86.7193844,13.1230392 86.7159551,13.0938574 86.7056669,13.0646757 L85.803739,8.67282021 L89.5623435,5.5357806 C89.6960895,5.43072625 89.7406715,5.27314473 89.6858014,5.13015408 Z" id="Shape"></path>
            </g>
        </g>
    </g>
</svg>